<svg xmlns="http://www.w3.org/2000/svg" xmlns:xlink="http://www.w3.org/1999/xlink" width="304.866" height="78.5" viewBox="0 0 304.866 78.5">
  <g>
    <path id="Path_18" data-name="Path 18" d="M359.184,48.943a22.862,22.862,0,0,0-8.3-5.462,29.482,29.482,0,0,0-10.815-1.919H314.746v3.4a1.779,1.779,0,0,0,.369,1.181,1.853,1.853,0,0,0,1.107.591l3.913.85V88.62l-3.913.85a1.858,1.858,0,0,0-1.107.59,1.783,1.783,0,0,0-.369,1.181v3.4h25.319a28.96,28.96,0,0,0,10.815-1.956,23.729,23.729,0,0,0,8.3-5.425,22.812,22.812,0,0,0,5.388-8.341,30.213,30.213,0,0,0,1.846-10.778,30.434,30.434,0,0,0-1.846-10.851,22.825,22.825,0,0,0-5.388-8.342m-3.137,29.823a16,16,0,0,1-6.238,6.939,18.6,18.6,0,0,1-9.744,2.436h-11.81V48.058h11.81a18.6,18.6,0,0,1,9.744,2.436,16,16,0,0,1,6.238,6.939,24.372,24.372,0,0,1,2.177,10.7,24.182,24.182,0,0,1-2.177,10.63" transform="translate(-218.476 -28.85)" fill="#fff"/>
    <path id="Path_19" data-name="Path 19" d="M548.391,48.943a22.862,22.862,0,0,0-8.3-5.462,29.482,29.482,0,0,0-10.815-1.919H503.953v3.4a1.779,1.779,0,0,0,.369,1.181,1.854,1.854,0,0,0,1.107.591l3.913.85V88.62l-3.913.85a1.858,1.858,0,0,0-1.107.59,1.783,1.783,0,0,0-.369,1.181v3.4h25.319a28.959,28.959,0,0,0,10.815-1.956,23.729,23.729,0,0,0,8.3-5.425,22.813,22.813,0,0,0,5.388-8.341,30.216,30.216,0,0,0,1.846-10.778,30.436,30.436,0,0,0-1.846-10.851,22.826,22.826,0,0,0-5.388-8.342m-3.137,29.823a16,16,0,0,1-6.238,6.939,18.6,18.6,0,0,1-9.744,2.436h-11.81V48.058h11.81a18.6,18.6,0,0,1,9.744,2.436,16,16,0,0,1,6.238,6.939,24.373,24.373,0,0,1,2.177,10.7,24.183,24.183,0,0,1-2.177,10.63" transform="translate(-349.811 -28.85)" fill="#fff"/>
    <path id="Path_20" data-name="Path 20" d="M735.777,89.47l-3.922-.841L721.383,73.968a7.848,7.848,0,0,0-2.732-2.436,19.648,19.648,0,0,0,6.754-3.137,14.275,14.275,0,0,0,4.356-5.13,14.991,14.991,0,0,0,1.513-6.791,13.056,13.056,0,0,0-9.006-13.25,30.194,30.194,0,0,0-10.7-1.661H690.748v3.4a1.78,1.78,0,0,0,.369,1.181,1.851,1.851,0,0,0,1.107.59l3.912.851V88.62l-3.912.85a1.858,1.858,0,0,0-1.107.59,1.784,1.784,0,0,0-.369,1.181v3.4h18.824v-3.4a1.793,1.793,0,0,0-.369-1.181,1.815,1.815,0,0,0-1.034-.59l-3.913-.838v-15.7h5.019a5.154,5.154,0,0,1,2.215.369,3.938,3.938,0,0,1,1.4,1.329L725.811,92.94a3.29,3.29,0,0,0,3.1,1.7h8.341v-3.4a1.684,1.684,0,0,0-.407-1.181,2,2,0,0,0-1.07-.59M711.269,67.1h-7.013V47.837h7.308q5.9,0,8.9,2.363a8.228,8.228,0,0,1,2.989,6.865,9.053,9.053,0,0,1-3.211,7.382q-3.211,2.657-8.969,2.658" transform="translate(-479.471 -28.85)" fill="#fff"/>
    <path id="Path_21" data-name="Path 21" d="M895.641,82.373a1.4,1.4,0,0,0-1.107-.517,1.709,1.709,0,0,0-.7.148,3.354,3.354,0,0,0-.7.443,17.259,17.259,0,0,1-5.758,3.543,19.07,19.07,0,0,1-6.348,1.034A18.647,18.647,0,0,1,870.8,84.365a16.411,16.411,0,0,1-6.237-7.2,24.58,24.58,0,0,1-2.067-10.3,23.655,23.655,0,0,1,2.288-10.7,16.876,16.876,0,0,1,6.57-7.123A19.26,19.26,0,0,1,881.395,46.5a27.355,27.355,0,0,1,6.09.664,31.827,31.827,0,0,1,4,1.172l.98,6.21a1.853,1.853,0,0,0,.59,1.108,1.783,1.783,0,0,0,1.182.369h3.543v-12.4q-2.658-1.107-5.389-2.03a39.55,39.55,0,0,0-5.573-1.439,33.244,33.244,0,0,0-5.943-.517,28.085,28.085,0,0,0-10.667,1.993A24.365,24.365,0,0,0,856.222,55.8a29.965,29.965,0,0,0-1.993,11.146,32.231,32.231,0,0,0,1.661,10.335,25.065,25.065,0,0,0,4.982,8.71,23.1,23.1,0,0,0,8.3,5.869,27.665,27.665,0,0,0,10.815,2.03,25.6,25.6,0,0,0,11.183-2.251,22.364,22.364,0,0,0,7.641-5.795Z" transform="translate(-592.949 -27.51)" fill="#fff"/>
    <path id="Path_22" data-name="Path 22" d="M53.707,7.972a16.607,16.607,0,0,0-1.754,16.36c1.723,4,6.548,10.837,19.731,13.336-5.814-10.637-6.084-23.023-.7-35.161A1.748,1.748,0,0,0,70.81.759,1.743,1.743,0,0,0,69.36,0c-.045,0-.091,0-.136.005-6.957.5-12.033,3.1-15.517,7.967" transform="translate(-35.101 0)" fill="#fff"/>
    <path id="Path_23" data-name="Path 23" d="M139.8,19.559c-.56-.055-1.119-.082-1.673-.082a16.593,16.593,0,0,0-13.373,6.744c-4.408,5.911-4.983,14.278-1.683,23.754,6.3-10.351,16.9-16.778,30.1-18.187a1.785,1.785,0,0,0,1.289-2.773c-3.908-5.777-8.7-8.869-14.658-9.454" transform="translate(-83.963 -13.52)" fill="#fff"/>
    <path id="Path_24" data-name="Path 24" d="M169.268,117.151c3.049-6.273,3.329-11.971.859-17.421a16.606,16.606,0,0,0-13.293-9.7c-4.324-.509-12.658.252-21.414,10.419,12.12.283,22.98,6.242,30.8,16.972a1.784,1.784,0,0,0,3.046-.27" transform="translate(-94 -62.412)" fill="#fff"/>
    <path id="Path_25" data-name="Path 25" d="M152.7,163.188a16.607,16.607,0,0,0,1.754-16.361c-1.722-4-6.548-10.837-19.73-13.336,5.813,10.637,6.083,23.023.7,35.161a1.785,1.785,0,0,0,1.757,2.5c6.957-.5,12.032-3.1,15.517-7.967" transform="translate(-93.517 -92.661)" fill="#fff"/>
    <path id="Path_26" data-name="Path 26" d="M54.527,137.459c-6.305,10.353-16.9,16.778-30.1,18.188a1.784,1.784,0,0,0-1.289,2.773c3.908,5.777,8.7,8.87,14.658,9.455a16.6,16.6,0,0,0,15.046-6.662c4.408-5.911,4.983-14.278,1.683-23.753" transform="translate(-15.846 -95.415)" fill="#fff"/>
    <path id="Path_27" data-name="Path 27" d="M5.568,75.131a1.742,1.742,0,0,0-1.43-.734c-.056,0-.113,0-.17.008a1.745,1.745,0,0,0-1.445,1c-3.049,6.272-3.33,11.971-.859,17.422a16.606,16.606,0,0,0,13.292,9.7c4.329.51,12.659-.252,21.416-10.419-12.12-.283-22.98-6.242-30.8-16.972" transform="translate(0 -51.641)" fill="#fff"/>
  </g>
</svg>
