<svg xmlns="http://www.w3.org/2000/svg" xmlns:xlink="http://www.w3.org/1999/xlink" width="270.853" height="69.514" viewBox="0 0 270.853 69.514">
  <g>
    <path id="Path_1" data-name="Path 1" d="M354.1,48.1a20.244,20.244,0,0,0-7.354-4.837,26.107,26.107,0,0,0-9.577-1.7H314.746v3.007a1.575,1.575,0,0,0,.327,1.046,1.641,1.641,0,0,0,.98.523l3.465.753V83.233l-3.465.753a1.645,1.645,0,0,0-.98.523,1.579,1.579,0,0,0-.327,1.046v3.007h22.421a25.644,25.644,0,0,0,9.577-1.732,21.012,21.012,0,0,0,7.354-4.8,20.2,20.2,0,0,0,4.772-7.386,26.756,26.756,0,0,0,1.635-9.544,26.951,26.951,0,0,0-1.635-9.609A20.213,20.213,0,0,0,354.1,48.1m-2.778,26.409a14.167,14.167,0,0,1-5.524,6.145,16.468,16.468,0,0,1-8.629,2.157H326.708V47.314h10.458a16.47,16.47,0,0,1,8.629,2.157,14.172,14.172,0,0,1,5.524,6.145,21.583,21.583,0,0,1,1.928,9.478,21.415,21.415,0,0,1-1.928,9.413" transform="translate(-229.496 -30.305)" fill="#004f65"/>
    <path id="Path_2" data-name="Path 2" d="M543.3,48.1a20.245,20.245,0,0,0-7.354-4.837,26.107,26.107,0,0,0-9.577-1.7H503.953v3.007a1.576,1.576,0,0,0,.327,1.046,1.642,1.642,0,0,0,.98.523l3.465.753V83.233l-3.465.753a1.646,1.646,0,0,0-.98.523,1.579,1.579,0,0,0-.327,1.046v3.007h22.421a25.644,25.644,0,0,0,9.577-1.732,21.013,21.013,0,0,0,7.354-4.8,20.2,20.2,0,0,0,4.772-7.386,26.754,26.754,0,0,0,1.635-9.544,26.949,26.949,0,0,0-1.635-9.609A20.213,20.213,0,0,0,543.3,48.1m-2.778,26.409A14.167,14.167,0,0,1,535,80.652a16.469,16.469,0,0,1-8.629,2.157H515.915V47.314h10.458A16.471,16.471,0,0,1,535,49.471a14.173,14.173,0,0,1,5.524,6.145,21.582,21.582,0,0,1,1.928,9.478,21.414,21.414,0,0,1-1.928,9.413" transform="translate(-367.456 -30.305)" fill="#004f65"/>
    <path id="Path_3" data-name="Path 3" d="M730.622,83.986l-3.473-.744-9.273-12.983a6.948,6.948,0,0,0-2.419-2.157,17.4,17.4,0,0,0,5.981-2.778,12.64,12.64,0,0,0,3.857-4.543,13.276,13.276,0,0,0,1.339-6.014,11.561,11.561,0,0,0-7.975-11.734,26.738,26.738,0,0,0-9.479-1.471H690.748v3.007a1.577,1.577,0,0,0,.327,1.046,1.64,1.64,0,0,0,.98.523l3.465.753V83.233l-3.465.753a1.646,1.646,0,0,0-.98.523,1.58,1.58,0,0,0-.327,1.046v3.007h16.669V85.555a1.587,1.587,0,0,0-.327-1.046,1.607,1.607,0,0,0-.915-.523l-3.465-.742v-13.9h4.445a4.564,4.564,0,0,1,1.962.327,3.488,3.488,0,0,1,1.242,1.177L721.8,87.058a2.913,2.913,0,0,0,2.746,1.5h7.386V85.555a1.492,1.492,0,0,0-.36-1.046,1.772,1.772,0,0,0-.948-.523M708.92,64.18h-6.21V47.118h6.471q5.229,0,7.877,2.092a7.286,7.286,0,0,1,2.647,6.079,8.017,8.017,0,0,1-2.843,6.537q-2.843,2.353-7.942,2.353" transform="translate(-503.657 -30.305)" fill="#004f65"/>
    <path id="Path_4" data-name="Path 4" d="M890.9,77.48a1.24,1.24,0,0,0-.98-.458,1.513,1.513,0,0,0-.621.131,2.972,2.972,0,0,0-.621.392,15.282,15.282,0,0,1-5.1,3.138,16.887,16.887,0,0,1-5.621.915,16.512,16.512,0,0,1-9.054-2.353,14.531,14.531,0,0,1-5.523-6.373,21.765,21.765,0,0,1-1.83-9.119,20.947,20.947,0,0,1,2.026-9.478,14.945,14.945,0,0,1,5.818-6.308,17.055,17.055,0,0,1,8.89-2.255,24.225,24.225,0,0,1,5.393.588,28.187,28.187,0,0,1,3.544,1.038l.868,5.5a1.641,1.641,0,0,0,.523.981,1.579,1.579,0,0,0,1.047.327H892.8V43.162q-2.354-.98-4.772-1.8a35.025,35.025,0,0,0-4.935-1.275,29.438,29.438,0,0,0-5.262-.457,24.87,24.87,0,0,0-9.446,1.765,21.577,21.577,0,0,0-12.387,12.551,26.534,26.534,0,0,0-1.765,9.87,28.544,28.544,0,0,0,1.471,9.152,22.2,22.2,0,0,0,4.412,7.713,20.454,20.454,0,0,0,7.354,5.2,24.5,24.5,0,0,0,9.577,1.8,22.669,22.669,0,0,0,9.9-1.994,19.8,19.8,0,0,0,6.766-5.131Z" transform="translate(-622.859 -28.898)" fill="#004f65"/>
    <path id="Path_5" data-name="Path 5" d="M53.348,7.06a14.706,14.706,0,0,0-1.553,14.488c1.526,3.544,5.8,9.6,17.472,11.81-5.148-9.419-5.387-20.387-.622-31.136A1.548,1.548,0,0,0,68.493.672,1.544,1.544,0,0,0,67.209,0c-.04,0-.08,0-.121,0C60.928.444,56.433,2.751,53.348,7.06" transform="translate(-36.872 0)" fill="#f57f2f"/>
    <path id="Path_6" data-name="Path 6" d="M137.644,19.55c-.5-.048-.991-.073-1.481-.073a14.693,14.693,0,0,0-11.842,5.972c-3.9,5.234-4.413,12.643-1.491,21.034,5.583-9.166,14.963-14.857,26.653-16.105a1.58,1.58,0,0,0,1.142-2.456c-3.461-5.116-7.707-7.854-12.98-8.372" transform="translate(-88.198 -14.202)" fill="#fec02d"/>
    <path id="Path_7" data-name="Path 7" d="M165.393,114.033c2.7-5.555,2.948-10.6.76-15.427a14.705,14.705,0,0,0-11.771-8.589c-3.829-.451-11.209.223-18.963,9.226,10.733.251,20.349,5.528,27.276,15.029a1.58,1.58,0,0,0,2.7-.239" transform="translate(-98.741 -65.56)" fill="#51b3a8"/>
    <path id="Path_8" data-name="Path 8" d="M150.643,159.788A14.706,14.706,0,0,0,152.2,145.3c-1.525-3.544-5.8-9.6-17.472-11.809,5.148,9.419,5.387,20.387.622,31.136a1.58,1.58,0,0,0,1.556,2.216c6.16-.439,10.655-2.747,13.74-7.055" transform="translate(-98.234 -97.335)" fill="#004f65"/>
    <path id="Path_9" data-name="Path 9" d="M50.9,137.459c-5.584,9.168-14.961,14.858-26.653,16.106A1.58,1.58,0,0,0,23.1,156.02c3.461,5.116,7.707,7.854,12.98,8.372a14.7,14.7,0,0,0,13.323-5.9c3.9-5.234,4.413-12.643,1.49-21.034" transform="translate(-16.645 -100.228)" fill="#7d327f"/>
    <path id="Path_10" data-name="Path 10" d="M4.93,75.047a1.542,1.542,0,0,0-1.267-.65c-.05,0-.1,0-.151.007a1.545,1.545,0,0,0-1.28.882c-2.7,5.554-2.949,10.6-.761,15.427A14.705,14.705,0,0,0,13.243,99.3c3.833.452,11.21-.223,18.964-9.227-10.733-.251-20.35-5.527-27.276-15.029" transform="translate(0 -54.246)" fill="#dd3a45"/>
  </g>
</svg>
