<svg id="Group_4" data-name="Group 4" xmlns="http://www.w3.org/2000/svg" xmlns:xlink="http://www.w3.org/1999/xlink" width="65.325" height="100" viewBox="0 0 65.325 100">
  <defs>
    <clipPath id="clip-path">
      <rect id="Rectangle_2" data-name="Rectangle 2" width="65.325" height="100" fill="none"/>
    </clipPath>
  </defs>
  <g id="Group_3" data-name="Group 3" clip-path="url(#clip-path)">
    <path id="Path_16" data-name="Path 16" d="M687.786,428.8v6.623a39.039,39.039,0,0,0,6.35-14.053h-6.35Z" transform="translate(-641.842 -393.221)" fill="#3bc14b"/>
    <path id="Path_17" data-name="Path 17" d="M201.532,435.422V421.369h-6.35a39.034,39.034,0,0,0,6.35,14.053" transform="translate(-182.144 -393.221)" fill="#3bc14b"/>
    <path id="Path_18" data-name="Path 18" d="M65.325,36.447V17.317A17.308,17.308,0,0,0,48.016,0H.815A.815.815,0,0,0,0,.807V99.193A.809.809,0,0,0,.815,100h47.2A17.306,17.306,0,0,0,65.325,82.692V63.4c0-6.7-3.1-12.085-8.159-13.391v-.333c5.057-1.306,8.159-6.529,8.159-13.225M54.952,26.4s-2.241,15.619-13.327,23.04c-3.574,2.587-5.349,5.075-5.681,7.265a6.911,6.911,0,0,0,1.885,5.91,7.423,7.423,0,0,0,3.843,2.274h1.814a.378.378,0,0,1,.376.376v2.322H45.6a.376.376,0,0,1,.376.376v8.819a.376.376,0,0,1-.376.376H19.734a.376.376,0,0,1-.376-.376V67.962a.376.376,0,0,1,.376-.376h1.735V65.264a.378.378,0,0,1,.376-.376H23.66A7.422,7.422,0,0,0,27.5,62.613a6.911,6.911,0,0,0,1.885-5.91c-.332-2.19-2.107-4.678-5.681-7.265C12.621,42.016,10.38,26.4,10.38,26.4a.377.377,0,0,1,.35-.508h8.658V23.272a.365.365,0,0,1,.365-.365H45.579a.365.365,0,0,1,.365.365v2.617H54.6a.377.377,0,0,1,.35.508" fill="#3bc14b"/>
    <path id="Path_19" data-name="Path 19" d="M575.7,392.009a11.3,11.3,0,0,1-.447,3.147l-.821,2.833,1.838-1.867a7.939,7.939,0,0,0,2.283-5.571V376.814H575.7Z" transform="translate(-536.058 -351.643)" fill="#3bc14b"/>
  </g>
</svg>
