<svg xmlns="http://www.w3.org/2000/svg" width="26.283" height="26" viewBox="0 0 26.283 26">
  <path id="hand-wave-solid_1_" data-name="hand-wave-solid (1)" d="M18.123,4.251l-.062-.436a2.461,2.461,0,0,0-2.089-2.089l-.436-.062A.822.822,0,1,1,15.767.036L16.2.1a4.1,4.1,0,0,1,3.485,3.485l.062.436a.822.822,0,1,1-1.627.231Zm-8.562-.6a1.644,1.644,0,0,1,2.325-2.325l9.855,9.855a.284.284,0,0,0,.482-.19V7a2.053,2.053,0,1,1,4.106,0v9.049a9.982,9.982,0,0,1-12.786,9.573A8.552,8.552,0,0,1,9.561,23.36l-.252-.252-5.5-5.5L2.17,15.969A1.644,1.644,0,1,1,4.5,13.644l1.637,1.637.005.005,2.392,2.4a.679.679,0,0,0,.96-.96l-6.5-6.5A1.644,1.644,0,1,1,5.316,7.895l6.5,6.5a.679.679,0,1,0,.96-.96L5.455,6.114A1.644,1.644,0,0,1,7.78,3.789l7.32,7.325a.679.679,0,0,0,.96-.96ZM.748,18.1a.818.818,0,0,1,.929.7l.062.436a2.461,2.461,0,0,0,2.089,2.089l.436.062a.822.822,0,0,1-.231,1.627L3.6,22.955A4.1,4.1,0,0,1,.112,19.47l-.056-.436a.822.822,0,0,1,.7-.929Z" transform="translate(-0.047 -0.028)" fill="#51b3a8"/>
</svg>
