<svg xmlns="http://www.w3.org/2000/svg" width="25" height="20.982" viewBox="0 0 25 20.982">
  <path id="bars-regular" d="M24.33,71.125H.67a.67.67,0,0,1-.67-.67V68.67A.67.67,0,0,1,.67,68H24.33a.67.67,0,0,1,.67.67v1.786A.67.67,0,0,1,24.33,71.125Zm0,8.929H.67a.67.67,0,0,1-.67-.67V77.6a.67.67,0,0,1,.67-.67H24.33a.67.67,0,0,1,.67.67v1.786A.67.67,0,0,1,24.33,80.054Zm0,8.929H.67a.67.67,0,0,1-.67-.67V86.527a.67.67,0,0,1,.67-.67H24.33a.67.67,0,0,1,.67.67v1.786A.67.67,0,0,1,24.33,88.982Z" transform="translate(0 -68)" fill="#313133"/>
</svg>
