<?xml version="1.0" encoding="UTF-8"?>
<svg id="Layer_1" xmlns="http://www.w3.org/2000/svg" version="1.1" viewBox="0 0 396 396">
  <!-- Generator: Adobe Illustrator 29.4.0, SVG Export Plug-In . SVG Version: 2.1.0 Build 152)  -->
  <defs>
    <style>
      .st0 {
        fill: #fff;
      }

      .st1 {
        opacity: .2;
      }
    </style>
  </defs>
  <g class="st1">
    <path class="st0" d="M4.3,195.9c20.8.5,39.5,10.7,52.9,29.2.6.9,1.7,1.3,2.7,1.2,1.1,0,2-.7,2.5-1.7,5.2-10.8,5.7-20.6,1.5-29.9-4.2-9.2-12.7-15.5-22.8-16.7-7.4-.9-21.7.4-36.8,17.9Z"/>
    <path class="st0" d="M37.9,223.6c-3-6.9-11.2-18.6-33.9-22.9,10,18.3,10.5,39.6,1.2,60.4-.4,1-.3,2.1.3,3,.6.9,1.6,1.4,2.7,1.3,12-.9,20.7-5.3,26.7-13.7,5.9-8.3,7-18.8,3-28.1Z"/>
    <path class="st0" d="M160.1,172.4c3,6.9,11.2,18.6,33.9,22.9-10-18.3-10.5-39.6-1.2-60.4.4-1,.3-2.1-.3-3-.6-.8-1.5-1.3-2.5-1.3s-.2,0-.2,0c-12,.9-20.7,5.3-26.7,13.7-5.9,8.3-7,18.8-3,28.1Z"/>
    <path class="st0" d="M250.1,161.9c1.1-.1,2-.8,2.5-1.8.5-1,.4-2.1-.2-3-6.7-9.9-15-15.2-25.2-16.2-1,0-1.9-.1-2.9-.1-9,0-17.5,4.2-23,11.6-7.6,10.2-8.6,24.5-2.9,40.8,10.8-17.8,29-28.8,51.7-31.2Z"/>
    <path class="st0" d="M202.3,195.9c20.8.5,39.5,10.7,52.9,29.2.6.9,1.7,1.3,2.7,1.2,1.1,0,2-.7,2.5-1.7,5.2-10.8,5.7-20.6,1.5-29.9-4.2-9.2-12.7-15.5-22.8-16.7-7.4-.9-21.7.4-36.8,17.9Z"/>
    <path class="st0" d="M235.9,223.6c-3-6.9-11.2-18.6-33.9-22.9,10,18.3,10.5,39.6,1.2,60.4-.4,1-.3,2.1.3,3,.6.9,1.6,1.4,2.7,1.3,12-.9,20.7-5.3,26.7-13.7,5.9-8.3,7-18.8,3-28.1Z"/>
    <path class="st0" d="M145.9,234c-1.1.1-2,.8-2.5,1.8-.5,1-.4,2.1.2,3,6.7,9.9,15,15.2,25.2,16.2,10.1,1,19.8-3.3,25.8-11.4,7.6-10.2,8.6-24.5,2.9-40.8-10.8,17.8-29,28.8-51.7,31.2Z"/>
    <path class="st0" d="M140.7,170.9c-.6-.8-1.5-1.3-2.5-1.3s-.2,0-.3,0c-1.1,0-2,.7-2.5,1.7-5.2,10.8-5.7,20.6-1.5,29.9,4.2,9.2,12.7,15.5,22.8,16.7,7.4.9,21.7-.4,36.8-17.9-20.8-.5-39.5-10.7-52.9-29.2Z"/>
    <path class="st0" d="M358.1,172.4c3,6.9,11.2,18.6,33.9,22.9-10-18.3-10.5-39.6-1.2-60.4.4-1,.3-2.1-.3-3-.6-.8-1.5-1.3-2.5-1.3s-.2,0-.2,0c-12,.9-20.7,5.3-26.7,13.7-5.9,8.3-7,18.8-3,28.1Z"/>
    <path class="st0" d="M338.7,170.9c-.6-.8-1.5-1.3-2.5-1.3s-.2,0-.3,0c-1.1,0-2,.7-2.5,1.7-5.2,10.8-5.7,20.6-1.5,29.9,4.2,9.2,12.7,15.5,22.8,16.7,7.4.9,21.7-.4,36.8-17.9-20.8-.5-39.5-10.7-52.9-29.2Z"/>
    <path class="st0" d="M104.2,63.1c-.4,1-.3,2.1.3,3,.6.9,1.6,1.4,2.7,1.3,12-.9,20.7-5.3,26.7-13.7,5.9-8.3,7-18.8,3-28.1-3-6.9-11.2-18.6-33.9-22.9,10,18.3,10.5,39.6,1.2,60.4Z"/>
    <path class="st0" d="M98.6,4.8c-10.8,17.8-29,28.8-51.7,31.2-1.1.1-2,.8-2.5,1.8-.5,1-.4,2.1.2,3,6.7,9.9,15,15.2,25.2,16.2,10.1,1,19.8-3.3,25.8-11.4,7.6-10.2,8.6-24.5,2.9-40.8Z"/>
    <path class="st0" d="M302.2,63.1c-.4,1-.3,2.1.3,3,.6.9,1.6,1.4,2.7,1.3,12-.9,20.7-5.3,26.7-13.7,5.9-8.3,7-18.8,3-28.1-3-6.9-11.2-18.6-33.9-22.9,10,18.3,10.5,39.6,1.2,60.4Z"/>
    <path class="st0" d="M296.6,4.8c-10.8,17.8-29,28.8-51.7,31.2-1.1.1-2,.8-2.5,1.8-.5,1-.4,2.1.2,3,6.7,9.9,15,15.2,25.2,16.2,10.1,1,19.8-3.3,25.8-11.4,7.6-10.2,8.6-24.5,2.9-40.8Z"/>
    <path class="st0" d="M93.8,332.9c.4-1,.3-2.1-.3-3-.6-.8-1.5-1.3-2.5-1.3s-.2,0-.2,0c-12,.9-20.7,5.3-26.7,13.7-5.9,8.3-7,18.8-3,28.1,3,6.9,11.2,18.6,33.9,22.9-10-18.3-10.5-39.6-1.2-60.4Z"/>
    <path class="st0" d="M151.1,359.9c1.1-.1,2-.8,2.5-1.8.5-1,.4-2.1-.2-3-6.7-9.9-15-15.2-25.2-16.2-1,0-1.9-.1-2.9-.1-9,0-17.5,4.2-23,11.6-7.6,10.2-8.6,24.5-2.9,40.8,10.8-17.8,29-28.8,51.7-31.2Z"/>
    <path class="st0" d="M291.8,332.9c.4-1,.3-2.1-.3-3-.6-.8-1.5-1.3-2.5-1.3s-.2,0-.2,0c-12,.9-20.7,5.3-26.7,13.7-5.9,8.3-7,18.8-3,28.1,3,6.9,11.2,18.6,33.9,22.9-10-18.3-10.5-39.6-1.2-60.4Z"/>
    <path class="st0" d="M349.1,359.9c1.1-.1,2-.8,2.5-1.8.5-1,.4-2.1-.2-3-6.7-9.9-15-15.2-25.2-16.2-1,0-1.9-.1-2.9-.1-9,0-17.5,4.2-23,11.6-7.6,10.2-8.6,24.5-2.9,40.8,10.8-17.8,29-28.8,51.7-31.2Z"/>
    <path class="st0" d="M57.9,20c7.4.9,21.7-.4,36.8-17.9-5.1-.1-10-.8-14.8-2.1h-46.1c.4,1.1.8,2.2,1.3,3.3,4.2,9.2,12.7,15.5,22.8,16.7Z"/>
    <path class="st0" d="M156.3,27.1c.6.9,1.7,1.3,2.7,1.2,1.1,0,2-.7,2.5-1.7,4.6-9.5,5.5-18.3,2.8-26.6h-46.1c14.8,3.9,27.9,13.1,38.1,27.1Z"/>
    <path class="st0" d="M255.9,20c7.4.9,21.7-.4,36.8-17.9-5.1-.1-10-.8-14.8-2.1h-46.1c.4,1.1.8,2.2,1.3,3.3,4.2,9.2,12.7,15.5,22.8,16.7Z"/>
    <path class="st0" d="M354.3,27.1c.6.9,1.7,1.3,2.7,1.2,1.1,0,2-.7,2.5-1.7,4.6-9.5,5.5-18.3,2.8-26.6h-46.1c14.8,3.9,27.9,13.1,38.1,27.1Z"/>
    <path class="st0" d="M396,192.1v-34.2c-4.3,9.3-4.3,21.1,0,34.2Z"/>
    <path class="st0" d="M343.9,234c-1.1.1-2,.8-2.5,1.8-.5,1-.4,2.1.2,3,6.7,9.9,15,15.2,25.2,16.2,10.1,1,19.8-3.3,25.8-11.4,1.3-1.7,2.4-3.6,3.3-5.5v-34.2c-.1-.4-.2-.8-.4-1.1-10.8,17.8-29,28.8-51.7,31.2Z"/>
    <path class="st0" d="M52.1,161.9c1.1-.1,2-.8,2.5-1.8.5-1,.4-2.1-.2-3-6.7-9.9-15-15.2-25.2-16.2-1,0-1.9-.1-2.9-.1-9,0-17.5,4.2-23,11.6-1.3,1.7-2.4,3.6-3.3,5.5v34.2c.1.4.2.7.4,1.1,10.8-17.8,29-28.8,51.7-31.2Z"/>
    <path class="st0" d="M0,238.1c4.3-9.3,4.3-21.1,0-34.2v34.2Z"/>
    <path class="st0" d="M41.7,368.9c-.6-.8-1.5-1.3-2.5-1.3s-.2,0-.3,0c-1.1,0-2,.7-2.5,1.7-4.6,9.5-5.5,18.3-2.8,26.6h46.1c-14.8-3.9-27.9-13.1-38.1-27.1Z"/>
    <path class="st0" d="M140.1,376c-7.4-.9-21.7.4-36.8,17.9,5.1.1,10,.8,14.8,2.1h46.1c-.4-1.1-.8-2.2-1.3-3.3-4.2-9.2-12.7-15.5-22.8-16.7Z"/>
    <path class="st0" d="M239.7,368.9c-.6-.8-1.5-1.3-2.5-1.3s-.2,0-.3,0c-1.1,0-2,.7-2.5,1.7-4.6,9.5-5.5,18.3-2.8,26.6h46.1c-14.8-3.9-27.9-13.1-38.1-27.1Z"/>
    <path class="st0" d="M338.1,376c-7.4-.9-21.7.4-36.8,17.9,5.1.1,10,.8,14.8,2.1h46.1c-.4-1.1-.8-2.2-1.3-3.3-4.2-9.2-12.7-15.5-22.8-16.7Z"/>
  </g>
</svg>