<svg xmlns="http://www.w3.org/2000/svg" width="530.272" height="535.118" viewBox="0 0 530.272 535.118">
  <g id="Component_18_1" data-name="Component 18 – 1" transform="translate(0)">
    <g id="Group_69" data-name="Group 69" transform="translate(4711.946 334.22)" opacity="0.1">
      <path id="Path_11" data-name="Path 11" d="M71.966,54.344A113.206,113.206,0,0,0,60.008,165.87c11.745,27.283,44.634,73.873,134.5,90.911C154.877,184.271,153.038,99.839,189.718,17.1A11.918,11.918,0,0,0,188.55,5.173,11.884,11.884,0,0,0,178.669,0c-.308,0-.617.01-.93.035C130.313,3.415,95.715,21.18,71.966,54.344" transform="translate(-4657.084 -334.22)" fill="#f57f2f"/>
      <path id="Path_12" data-name="Path 12" d="M249.389,20.038c-3.818-.373-7.629-.561-11.4-.561a113.11,113.11,0,0,0-91.162,45.971c-30.05,40.291-33.969,97.327-11.476,161.923C178.327,156.807,250.536,113,340.524,103.391a12.165,12.165,0,0,0,8.788-18.9c-26.643-39.38-59.325-60.46-99.923-64.448" transform="translate(-4580.705 -313.087)" fill="#fec02d"/>
      <path id="Path_13" data-name="Path 13" d="M366.156,275.585c20.781-42.76,22.7-81.606,5.852-118.755a113.2,113.2,0,0,0-90.613-66.12c-29.474-3.47-86.287,1.718-145.975,71.024,82.619,1.931,156.648,42.553,209.971,115.694a12.163,12.163,0,0,0,20.765-1.843" transform="translate(-4565.016 -236.661)" fill="#51b3a8"/>
      <path id="Path_14" data-name="Path 14" d="M257.264,335.928A113.2,113.2,0,0,0,269.222,224.4c-11.741-27.28-44.634-73.87-134.5-90.907,39.628,72.511,41.467,156.942,4.787,239.686a12.166,12.166,0,0,0,11.979,17.06c47.422-3.38,82.021-21.144,105.774-54.309" transform="translate(-4565.771 -189.378)" fill="#004f65"/>
      <path id="Path_15" data-name="Path 15" d="M238.907,137.459C195.924,208.033,123.734,251.833,33.732,261.441a12.162,12.162,0,0,0-8.784,18.9c26.643,39.382,59.325,60.462,99.923,64.45A113.188,113.188,0,0,0,227.433,299.38c30.051-40.291,33.969-97.327,11.474-161.921" transform="translate(-4687.186 -185.073)" fill="#7d327f"/>
      <path id="Path_16" data-name="Path 16" d="M37.951,79.4a11.873,11.873,0,0,0-9.75-5c-.384,0-.767.017-1.159.052a11.9,11.9,0,0,0-9.852,6.789C-3.595,124-5.511,162.844,11.334,200a113.2,113.2,0,0,0,90.607,66.118c29.507,3.478,86.291-1.718,145.985-71.026C165.307,193.162,91.274,152.544,37.951,79.4" transform="translate(-4711.947 -253.497)" fill="#dd3a45"/>
    </g>
  </g>
</svg>
