<svg xmlns="http://www.w3.org/2000/svg" xmlns:xlink="http://www.w3.org/1999/xlink" width="130.349" height="130.349" viewBox="0 0 130.349 130.349">
  <defs>
    <filter id="circle-play-regular" x="0" y="0" width="130.349" height="130.349" filterUnits="userSpaceOnUse">
      <feOffset input="SourceAlpha"/>
      <feGaussianBlur stdDeviation="5" result="blur"/>
      <feFlood flood-opacity="0.251"/>
      <feComposite operator="in" in2="blur"/>
      <feComposite in="SourceGraphic"/>
    </filter>
  </defs>
  <g transform="matrix(1, 0, 0, 1, 0, 0)" filter="url(#circle-play-regular)">
    <path id="circle-play-regular-2" data-name="circle-play-regular" d="M36.906,28.831a4.3,4.3,0,0,1,4.743.078L69.872,46.157a4.708,4.708,0,0,1,0,8.036L41.649,71.44A4.715,4.715,0,0,1,34.5,67.422V32.751a4.612,4.612,0,0,1,2.411-3.92Zm63.443,21.344A50.175,50.175,0,1,1,50.175,0,50.171,50.171,0,0,1,100.349,50.175ZM50.175,9.408A40.767,40.767,0,1,0,90.942,50.175,40.761,40.761,0,0,0,50.175,9.408Z" transform="translate(15 15)" fill="#fff"/>
  </g>
</svg>
