<svg xmlns="http://www.w3.org/2000/svg" xmlns:xlink="http://www.w3.org/1999/xlink" width="144.701" height="144.711" viewBox="0 0 144.701 144.711">
  <defs>
    <clipPath id="clip-path">
      <rect id="Rectangle_104" data-name="Rectangle 104" width="144.701" height="144.711" fill="none"/>
    </clipPath>
  </defs>
  <g id="Group_48" data-name="Group 48" transform="translate(-875 -6407)">
    <g id="Group_47" data-name="Group 47" transform="translate(875 6407)">
      <g id="Group_46" data-name="Group 46" clip-path="url(#clip-path)">
        <path id="Path_1" data-name="Path 1" d="M7.2,155.741q3.531,0,3.531,3.758v3.673q0,3.758-3.531,3.758H3.987v7.232H0V155.74Zm-.455,7.887v-4.584a.573.573,0,0,0-.157-.4.5.5,0,0,0-.385-.171H3.987V164.2H6.207a.5.5,0,0,0,.385-.171.573.573,0,0,0,.157-.4" transform="translate(0 -51.408)" fill="#fff"/>
        <path id="Path_2" data-name="Path 2" d="M27.236,166.618v7.545H23.25V155.741h7.09q3.53,0,3.53,3.758v2.136q0,2.278-1.623,2.9a2.2,2.2,0,0,1,1.424,2.335v7.289H29.685v-6.976q0-.57-.541-.569Zm0-8.172v5.381h2.108a.5.5,0,0,0,.384-.171.572.572,0,0,0,.157-.4v-4.243a.573.573,0,0,0-.157-.4.5.5,0,0,0-.384-.171Z" transform="translate(-7.675 -51.408)" fill="#fff"/>
        <path id="Path_3" data-name="Path 3" d="M58.027,159.074v11.475q0,3.758-3.53,3.758H50.709q-3.531,0-3.53-3.758V159.074q0-3.758,3.53-3.758H54.5q3.53,0,3.53,3.758M54.041,171V158.59a.573.573,0,0,0-.157-.4.5.5,0,0,0-.384-.171H51.706a.5.5,0,0,0-.385.171.573.573,0,0,0-.157.4V171a.572.572,0,0,0,.157.4.5.5,0,0,0,.385.171H53.5a.5.5,0,0,0,.384-.171A.573.573,0,0,0,54.041,171Z" transform="translate(-15.573 -51.268)" fill="#fff"/>
        <path id="Path_4" data-name="Path 4" d="M78.969,155.741h3.844L79,174.164H74.413L70.6,155.741H74.47l2.249,13.44Z" transform="translate(-23.303 -51.408)" fill="#fff"/>
        <rect id="Rectangle_102" data-name="Rectangle 102" width="3.987" height="18.423" transform="translate(64.321 104.333)" fill="#fff"/>
        <path id="Path_5" data-name="Path 5" d="M117.952,155.741q3.531,0,3.531,3.758V170.4q0,3.758-3.531,3.758h-7.317V155.74ZM117.5,170.86V159.015a.572.572,0,0,0-.157-.4.5.5,0,0,0-.385-.171h-2.335v12.984h2.335a.5.5,0,0,0,.385-.171.573.573,0,0,0,.157-.4" transform="translate(-36.519 -51.408)" fill="#fff"/>
        <path id="Path_6" data-name="Path 6" d="M139.486,170.86H143.9v3.3h-8.4V155.74h8.4v3.246h-4.413v4.328h4.128v3.132h-4.128Z" transform="translate(-44.726 -51.408)" fill="#fff"/>
        <path id="Path_7" data-name="Path 7" d="M166.28,174.024h-3.986V158.733a.573.573,0,0,0-.157-.4.5.5,0,0,0-.385-.17h-1.537a.5.5,0,0,0-.385.17.573.573,0,0,0-.157.4v15.291h-3.986V159.075q0-3.758,3.53-3.758h3.53q3.531,0,3.531,3.758Z" transform="translate(-51.39 -51.268)" fill="#fff"/>
        <path id="Path_8" data-name="Path 8" d="M186.608,171v-2.847h3.787v2.392q0,3.758-3.531,3.758h-3.587q-3.531,0-3.531-3.758V159.074q0-3.758,3.531-3.758h3.587q3.53,0,3.531,3.758v1.737h-3.787v-2.221a.573.573,0,0,0-.157-.4.5.5,0,0,0-.385-.171h-1.793a.5.5,0,0,0-.385.171.566.566,0,0,0-.157.4V171a.565.565,0,0,0,.157.4.5.5,0,0,0,.385.171h1.793a.5.5,0,0,0,.385-.171.572.572,0,0,0,.157-.4" transform="translate(-59.331 -51.268)" fill="#fff"/>
        <path id="Path_9" data-name="Path 9" d="M207.448,170.86h4.413v3.3h-8.4V155.74h8.4v3.246h-4.413v4.328h4.129v3.132h-4.129Z" transform="translate(-67.16 -51.408)" fill="#fff"/>
        <path id="Path_10" data-name="Path 10" d="M34.484,91.829V48.466L50.049,28.545V90.173a148.089,148.089,0,0,1-15.564,1.656m37.868-6.92V8.21l15.6,17.6V81.07a87.129,87.129,0,0,1,9.486-.976V36.506l28.843,32.528L72.351,0,59.535,16.4V88.353c4.129-.926,8.408-2.063,12.818-3.443M73.63,88.4C30.862,102.178,0,92.8,0,92.8s31.866,18.206,83.074,1.3c31.587-10.427,61.627,2.711,61.627,2.711S116.4,74.623,73.63,88.4M25,92v-31.4L2.41,89.519A111.1,111.1,0,0,0,25,92" fill="#fff"/>
        <rect id="Rectangle_103" data-name="Rectangle 103" width="1.052" height="8.395" transform="translate(0 125.303)" fill="#fff"/>
        <path id="Path_11" data-name="Path 11" d="M16.617,195.439H15.6l-4.342-7.319.012.553q.019.314.019.529v6.236h-.849v-8.4h1.316l4.06,6.842L15.8,193.3q-.012-.345-.012-.608v-5.649h.83Z" transform="translate(-3.445 -61.741)" fill="#fff"/>
        <path id="Path_12" data-name="Path 12" d="M29.58,195.439H28.528v-8.4H33.67v.922H29.58v2.651h3.389v.849H29.58Z" transform="translate(-9.417 -61.741)" fill="#fff"/>
        <path id="Path_13" data-name="Path 13" d="M49.852,195.434h-1.1L47.2,191.8H44.8v3.635h-.984v-8.4h3.309a2.528,2.528,0,0,1,2,.735,2.379,2.379,0,0,1,.648,1.608,2.5,2.5,0,0,1-.362,1.286,2.034,2.034,0,0,1-1.2.88Zm-5.056-4.49h2.2a1.687,1.687,0,0,0,1.294-.458,1.581,1.581,0,0,0,.427-1.123,1.259,1.259,0,0,0-.452-1.033,1.748,1.748,0,0,0-1.142-.369H44.8Z" transform="translate(-14.462 -61.736)" fill="#fff"/>
        <path id="Path_14" data-name="Path 14" d="M66.226,195.439H65.152l-.844-2.455H61.193l-.751,2.455h-.88l2.728-8.4h1.19ZM64.084,192.2l-1.3-4.035-1.3,4.035Z" transform="translate(-19.661 -61.74)" fill="#fff"/>
        <path id="Path_15" data-name="Path 15" d="M75.5,193.129l.947-.215a2.364,2.364,0,0,0,2.479,1.716,2.29,2.29,0,0,0,1.5-.423,1.4,1.4,0,0,0,.5-1.133,1.08,1.08,0,0,0-.385-.864,2.136,2.136,0,0,0-.888-.45l-1.679-.414a4.292,4.292,0,0,1-1.067-.4,1.952,1.952,0,0,1-.7-.73,2.188,2.188,0,0,1-.289-1.127,2.026,2.026,0,0,1,.794-1.678,3.191,3.191,0,0,1,2.036-.626,2.894,2.894,0,0,1,3.008,2.073l-.953.283a1.691,1.691,0,0,0-.781-1.117,2.465,2.465,0,0,0-1.31-.378,2.139,2.139,0,0,0-1.227.364,1.175,1.175,0,0,0-.538,1.032q0,.934,1.364,1.261l1.57.368q2.153.518,2.153,2.319a2.329,2.329,0,0,1-.809,1.812,3.762,3.762,0,0,1-5.723-1.67Z" transform="translate(-24.921 -61.651)" fill="#fff"/>
        <path id="Path_16" data-name="Path 16" d="M95.019,195.439H93.967v-7.473h-2.4v-.922H97.43v.922H95.019Z" transform="translate(-30.223 -61.741)" fill="#fff"/>
        <path id="Path_17" data-name="Path 17" d="M113.841,195.434h-1.1L111.19,191.8h-2.4v3.635H107.8v-8.4h3.309a2.527,2.527,0,0,1,2,.735,2.379,2.379,0,0,1,.648,1.608,2.494,2.494,0,0,1-.362,1.286,2.033,2.033,0,0,1-1.2.88Zm-5.056-4.49h2.2a1.687,1.687,0,0,0,1.294-.458,1.581,1.581,0,0,0,.427-1.123,1.259,1.259,0,0,0-.452-1.033,1.747,1.747,0,0,0-1.141-.369h-2.325Z" transform="translate(-35.584 -61.736)" fill="#fff"/>
        <path id="Path_18" data-name="Path 18" d="M129.608,187.043h.874v5.484a3.025,3.025,0,0,1-.809,2.367,3.076,3.076,0,0,1-2.119.717,2.849,2.849,0,0,1-2.159-.738,3.323,3.323,0,0,1-.7-2.345v-5.484h1.052v5.485a3,3,0,0,0,.228,1.379,1.361,1.361,0,0,0,.689.591,2.49,2.49,0,0,0,.966.191,1.984,1.984,0,0,0,1.476-.51,2.281,2.281,0,0,0,.5-1.65Z" transform="translate(-41.156 -61.74)" fill="#fff"/>
        <path id="Path_19" data-name="Path 19" d="M146.789,192.53l.959.215q-.688,2.78-3.112,2.78a2.894,2.894,0,0,1-2.5-1.286,5.352,5.352,0,0,1-.907-3.163,4.816,4.816,0,0,1,.947-3.114,3.093,3.093,0,0,1,2.54-1.176q2.361,0,3.032,2.7l-.99.2q-.542-2-2.048-2.005a1.951,1.951,0,0,0-1.726.932,4.751,4.751,0,0,0-.612,2.617A4.369,4.369,0,0,0,143,193.7a1.919,1.919,0,0,0,1.661.932q1.606,0,2.128-2.1" transform="translate(-46.616 -61.655)" fill="#fff"/>
        <path id="Path_20" data-name="Path 20" d="M160.725,195.439h-1.052v-7.473h-2.4v-.922h5.868v.922h-2.411Z" transform="translate(-51.912 -61.741)" fill="#fff"/>
        <path id="Path_21" data-name="Path 21" d="M178.222,187.043h.874v5.484a3.023,3.023,0,0,1-.809,2.367,3.073,3.073,0,0,1-2.118.717,2.849,2.849,0,0,1-2.159-.738,3.319,3.319,0,0,1-.7-2.345v-5.484h1.052v5.485a3,3,0,0,0,.228,1.379,1.363,1.363,0,0,0,.689.591,2.5,2.5,0,0,0,.965.191,1.987,1.987,0,0,0,1.477-.511,2.282,2.282,0,0,0,.5-1.649Z" transform="translate(-57.202 -61.74)" fill="#fff"/>
        <path id="Path_22" data-name="Path 22" d="M196.675,195.434h-1.1l-1.548-3.635h-2.406v3.635h-.984v-8.4h3.309a2.525,2.525,0,0,1,2,.735,2.38,2.38,0,0,1,.649,1.608,2.5,2.5,0,0,1-.363,1.286,2.031,2.031,0,0,1-1.2.88Zm-5.056-4.49h2.2a1.687,1.687,0,0,0,1.294-.458,1.581,1.581,0,0,0,.427-1.123,1.259,1.259,0,0,0-.452-1.033,1.747,1.747,0,0,0-1.141-.369h-2.325Z" transform="translate(-62.926 -61.736)" fill="#fff"/>
        <path id="Path_23" data-name="Path 23" d="M213.324,194.516v.922h-5.431v-8.4h5.314v.922h-4.263v2.67h3.383v.855h-3.383v3.026Z" transform="translate(-68.623 -61.74)" fill="#fff"/>
        <path id="Path_24" data-name="Path 24" d="M30.121,208.7l.959.215q-.688,2.781-3.112,2.78a2.894,2.894,0,0,1-2.5-1.286,5.352,5.352,0,0,1-.907-3.164,4.815,4.815,0,0,1,.947-3.114,3.094,3.094,0,0,1,2.54-1.176q2.361,0,3.032,2.7l-.99.2q-.542-2-2.048-2.005a1.951,1.951,0,0,0-1.726.932,4.752,4.752,0,0,0-.612,2.617,4.369,4.369,0,0,0,.627,2.475,1.919,1.919,0,0,0,1.661.932q1.606,0,2.128-2.1" transform="translate(-8.105 -66.991)" fill="#fff"/>
        <path id="Path_25" data-name="Path 25" d="M44.612,211.692a2.929,2.929,0,0,1-2.522-1.259,5.153,5.153,0,0,1-.9-3.086,5.051,5.051,0,0,1,.947-3.151,3.157,3.157,0,0,1,5.006-.022,4.9,4.9,0,0,1,.941,3.081,5.349,5.349,0,0,1-.913,3.111,2.928,2.928,0,0,1-2.556,1.326m.025-.855a1.929,1.929,0,0,0,1.722-1,4.845,4.845,0,0,0,.621-2.586,4.31,4.31,0,0,0-.643-2.53,2,2,0,0,0-1.706-.9,1.947,1.947,0,0,0-1.71.979,4.639,4.639,0,0,0-.634,2.561,4.49,4.49,0,0,0,.64,2.515,1.959,1.959,0,0,0,1.71.969" transform="translate(-13.594 -66.992)" fill="#fff"/>
        <path id="Path_26" data-name="Path 26" d="M65.756,211.606H64.735l-4.342-7.319.012.553q.019.314.019.529v6.236h-.849v-8.4h1.316l4.06,6.842-.013-.584c-.008-.23-.012-.432-.012-.608v-5.649h.831Z" transform="translate(-19.665 -67.077)" fill="#fff"/>
        <path id="Path_27" data-name="Path 27" d="M76.291,209.3l.947-.215a2.364,2.364,0,0,0,2.479,1.716,2.291,2.291,0,0,0,1.5-.423,1.4,1.4,0,0,0,.5-1.133,1.08,1.08,0,0,0-.385-.864,2.135,2.135,0,0,0-.888-.45l-1.679-.414a4.32,4.32,0,0,1-1.067-.4,1.937,1.937,0,0,1-.7-.73,2.181,2.181,0,0,1-.289-1.127,2.027,2.027,0,0,1,.794-1.678,3.189,3.189,0,0,1,2.035-.625,2.893,2.893,0,0,1,3.008,2.073l-.953.283a1.685,1.685,0,0,0-.781-1.116,2.455,2.455,0,0,0-1.31-.378,2.139,2.139,0,0,0-1.227.364,1.174,1.174,0,0,0-.538,1.032q0,.934,1.364,1.261l1.57.368q2.152.516,2.153,2.319a2.328,2.328,0,0,1-.809,1.812,3.762,3.762,0,0,1-5.723-1.67Z" transform="translate(-25.183 -66.987)" fill="#fff"/>
        <path id="Path_28" data-name="Path 28" d="M98.823,203.21H99.7v5.484a3.023,3.023,0,0,1-.809,2.367,3.074,3.074,0,0,1-2.118.717,2.849,2.849,0,0,1-2.159-.738,3.319,3.319,0,0,1-.7-2.345V203.21h1.052v5.485a3,3,0,0,0,.228,1.379,1.361,1.361,0,0,0,.689.591,2.49,2.49,0,0,0,.966.191,1.984,1.984,0,0,0,1.476-.51,2.281,2.281,0,0,0,.5-1.65Z" transform="translate(-30.994 -67.077)" fill="#fff"/>
        <path id="Path_29" data-name="Path 29" d="M116.194,210.683v.922h-4.957v-8.4h1.077v7.473Z" transform="translate(-36.718 -67.077)" fill="#fff"/>
        <path id="Path_30" data-name="Path 30" d="M127.039,211.606h-1.052v-7.473h-2.4v-.922h5.868v.922h-2.411Z" transform="translate(-40.793 -67.077)" fill="#fff"/>
        <path id="Path_31" data-name="Path 31" d="M143.847,211.606h-1.075l-.844-2.455h-3.115l-.751,2.455h-.88l2.728-8.4h1.19Zm-2.142-3.242-1.3-4.035-1.3,4.035Z" transform="translate(-45.282 -67.077)" fill="#fff"/>
        <path id="Path_32" data-name="Path 32" d="M160.679,211.606h-1.021l-4.342-7.319.012.553q.019.314.019.529v6.236H154.5v-8.4h1.317l4.06,6.842-.013-.584c-.008-.23-.012-.432-.012-.608v-5.649h.83Z" transform="translate(-50.997 -67.077)" fill="#fff"/>
        <path id="Path_33" data-name="Path 33" d="M174.67,211.606h-1.052v-7.473h-2.4v-.922h5.868v.922H174.67Z" transform="translate(-56.515 -67.077)" fill="#fff"/>
        <path id="Path_34" data-name="Path 34" d="M186.074,209.3l.947-.215A2.364,2.364,0,0,0,189.5,210.8a2.291,2.291,0,0,0,1.5-.423,1.4,1.4,0,0,0,.5-1.133,1.08,1.08,0,0,0-.385-.864,2.131,2.131,0,0,0-.888-.45l-1.679-.414a4.32,4.32,0,0,1-1.067-.4,1.937,1.937,0,0,1-.7-.73,2.181,2.181,0,0,1-.289-1.127,2.028,2.028,0,0,1,.793-1.678,3.192,3.192,0,0,1,2.036-.625,2.893,2.893,0,0,1,3.008,2.073l-.953.283a1.686,1.686,0,0,0-.781-1.116,2.455,2.455,0,0,0-1.31-.378,2.139,2.139,0,0,0-1.227.364,1.174,1.174,0,0,0-.538,1.032q0,.934,1.364,1.261l1.57.368q2.152.516,2.153,2.319a2.328,2.328,0,0,1-.809,1.812,3.762,3.762,0,0,1-5.723-1.67Z" transform="translate(-61.42 -66.987)" fill="#fff"/>
      </g>
    </g>
  </g>
</svg>
