<svg xmlns="http://www.w3.org/2000/svg" width="26" height="26" viewBox="0 0 26 26">
  <path id="circle-question-solid" d="M13,26A13,13,0,1,0,0,13,13,13,0,0,0,13,26ZM8.623,8.394A2.849,2.849,0,0,1,11.3,6.5h2.961a3.206,3.206,0,0,1,1.595,5.987l-1.64.939a1.219,1.219,0,0,1-2.437-.02v-.686a1.216,1.216,0,0,1,.614-1.056l2.25-1.29a.767.767,0,0,0-.381-1.432H11.3a.4.4,0,0,0-.381.269l-.02.061a1.217,1.217,0,0,1-2.3-.812l.02-.061Zm2.752,9.481A1.625,1.625,0,1,1,13,19.5,1.625,1.625,0,0,1,11.375,17.875Z" fill="#51b3a8"/>
</svg>
