<svg xmlns="http://www.w3.org/2000/svg" width="40" height="40" viewBox="0 0 40 40">
  <path id="block-question-solid" d="M0,37.714A5.714,5.714,0,0,1,5.714,32H34.286A5.717,5.717,0,0,1,40,37.714V66.286A5.72,5.72,0,0,1,34.286,72H5.714A5.717,5.717,0,0,1,0,66.286Zm23.036,7.143A1.943,1.943,0,0,1,25,46.741a2.17,2.17,0,0,1-.955,1.759L18.9,51.589a2.146,2.146,0,0,0-1.045,1.839v1.429a2.143,2.143,0,0,0,4.286,0v-.214L26.25,52.1a6.066,6.066,0,0,0,3.036-5.357,6.3,6.3,0,0,0-6.25-6.25H17.857a5.772,5.772,0,0,0-5.714,5.714v.714a2.143,2.143,0,0,0,4.286,0v-.714a1.488,1.488,0,0,1,1.429-1.429ZM20,64.857A2.857,2.857,0,1,0,17.143,62,2.854,2.854,0,0,0,20,64.857ZM6.429,36.286a2.143,2.143,0,1,0,2.143,2.143A2.143,2.143,0,0,0,6.429,36.286Zm27.143,4.286a2.143,2.143,0,1,0-2.143-2.143A2.138,2.138,0,0,0,33.571,40.571ZM6.429,63.429a2.143,2.143,0,1,0,2.143,2.143A2.141,2.141,0,0,0,6.429,63.429Zm27.143,4.286a2.143,2.143,0,1,0-2.143-2.143A2.138,2.138,0,0,0,33.571,67.714Z" transform="translate(0 -32)" fill="#3bc14b"/>
</svg>
