<?xml version="1.0" encoding="UTF-8"?>
<svg id="Layer_1" xmlns="http://www.w3.org/2000/svg" version="1.1" viewBox="0 0 29.2 25">
  <!-- Generator: Adobe Illustrator 29.4.0, SVG Export Plug-In . SVG Version: 2.1.0 Build 152)  -->
  <defs>
    <style>
      .st0 {
        fill: #e03b45;
      }
    </style>
  </defs>
  <path class="st0" d="M28.5,14c.8-.8.8-2.1,0-2.9L18.1.6c-.8-.8-2.1-.9-2.9,0-.8.8-.9,2.1,0,2.9,0,0,0,0,0,0l6.9,6.9H2.1c-1.2,0-2.1,1-2,2.1,0,1.1.9,2,2,2h20l-6.9,6.9c-.8.8-.8,2.2,0,2.9.8.8,2.1.8,2.9,0l10.4-10.4h0Z"/>
</svg>