<svg id="magnifying-glass-regular" xmlns="http://www.w3.org/2000/svg" width="24.993" height="25" viewBox="0 0 24.993 25">
  <path id="magnifying-glass-regular-2" data-name="magnifying-glass-regular" d="M24.614,23l-6.543-6.543a9.853,9.853,0,0,0,2.2-6.3,10.176,10.176,0,1,0-3.857,7.957l6.543,6.543a1.35,1.35,0,0,0,.874.344,1.172,1.172,0,0,0,.829-.343A1.141,1.141,0,0,0,24.614,23ZM2.344,10.156a7.812,7.812,0,1,1,7.812,7.813A7.822,7.822,0,0,1,2.344,10.156Z" transform="translate(0)" fill="#004f66"/>
</svg>
